<?xml version="1.0" encoding="UTF-8" standalone="no"?>
<!-- Created with Inkscape (http://www.inkscape.org/) -->

<svg
   version="1.1"
   id="svg464"
   xml:space="preserve"
   width="160"
   height="160"
   viewBox="0 0 160 160"
   sodipodi:docname="kuggar-icon.svg"
   inkscape:version="1.1 (c68e22c387, 2021-05-23)"
   xmlns:inkscape="http://www.inkscape.org/namespaces/inkscape"
   xmlns:sodipodi="http://sodipodi.sourceforge.net/DTD/sodipodi-0.dtd"
   xmlns="http://www.w3.org/2000/svg"
   xmlns:svg="http://www.w3.org/2000/svg"
   xmlns:rdf="http://www.w3.org/1999/02/22-rdf-syntax-ns#"
   xmlns:cc="http://creativecommons.org/ns#"
   xmlns:dc="http://purl.org/dc/elements/1.1/"><title
     id="title831">Kuggar - Icon</title><defs
     id="defs468"><clipPath
       clipPathUnits="userSpaceOnUse"
       id="clipPath486"><path
         d="M 0,867.397 H 867.397 V 0 H 0 Z"
         id="path484" /></clipPath></defs><sodipodi:namedview
     id="namedview466"
     pagecolor="#ffffff"
     bordercolor="#666666"
     borderopacity="1.0"
     inkscape:pageshadow="2"
     inkscape:pageopacity="0.0"
     inkscape:pagecheckerboard="0"
     showgrid="false"
     inkscape:zoom="4"
     inkscape:cx="-47.875"
     inkscape:cy="60.625"
     inkscape:window-width="3440"
     inkscape:window-height="1387"
     inkscape:window-x="-8"
     inkscape:window-y="-8"
     inkscape:window-maximized="1"
     inkscape:current-layer="g470"
     width="164px" /><g
     id="g470"
     inkscape:groupmode="layer"
     inkscape:label="Kuggar Logo"
     transform="matrix(1.3333333,0,0,-1.3333333,0,1156.5293)"><path
       id="path490"
       style="fill:#fd3c39;fill-opacity:1;fill-rule:nonzero;stroke:none;stroke-width:1.38837"
       d="M 102.53711 0.00390625 C 102.23305 1.1757062 102.02457 2.0157625 101.79688 2.8515625 C 99.468568 11.388696 91.515642 17.653089 82.517578 18.039062 C 73.951298 18.406982 65.523742 12.856981 62.470703 4.8613281 C 61.869536 3.2883015 61.552459 0.86503541 60.457031 0.41796875 C 59.18389 -0.10267124 57.170616 1.0381496 55.525391 1.5976562 C 50.088511 3.4469762 44.796063 5.6212578 39.896484 8.7714844 C 45.488863 17.838964 45.941741 26.900493 38.855469 34.943359 C 30.694596 44.206599 20.77803 44.265852 10.417969 38.197266 C 6.5138555 44.886465 3.4652089 51.729649 1.7519531 59.232422 C 11.984284 61.541302 18.628194 67.569288 19.519531 77.861328 C 20.605241 90.417794 13.637745 97.784421 1.8476562 100.86523 C 2.8597824 106.76583 8.0248067 118.90898 10.673828 121.72461 C 21.557308 116.24469 30.210746 116.46419 37.095703 123.13672 C 45.767499 131.54195 45.925988 141.17987 39.910156 151.31641 C 45.852405 154.85538 52.08469 157.4112 58.578125 159.41602 C 60.453821 159.99498 61.161917 159.75788 61.699219 157.69336 C 65.601944 142.72944 83.147905 137.09242 95.097656 146.85547 C 99.182257 150.19312 101.3084 154.63532 102.53711 160 C 109.06109 158.35893 115.10616 156.12814 120.73047 152.85156 C 120.86219 152.77416 120.97619 152.61567 121.07812 152.42773 C 123.74923 151.15368 126.1731 149.60495 128.43359 147.80469 C 147.85003 134.70675 172.13135 104.69248 148.92188 73.523438 C 141.5274 63.595171 133.77741 57.015926 125.25 57.251953 C 124.9876 57.259953 124.72586 57.267672 124.46484 57.263672 C 124.40653 57.262285 124.34891 57.207199 124.08789 57.068359 C 124.25866 52.010506 125.69913 47.159937 127.70117 42.09375 C 126.56826 42.360323 125.69795 42.518225 124.85938 42.769531 C 118.04106 44.820158 111.85445 48.065533 106.27734 52.5 C 105.50679 53.11228 104.46826 53.604883 103.50195 53.71875 C 89.416879 55.36675 77.270827 61.178106 67.152344 71.007812 C 64.13679 73.938679 61.041985 76.522719 57.318359 78.451172 C 55.038646 79.629905 54.868561 82.780368 57.056641 83.925781 C 59.416881 85.162821 60.788679 87.131999 61.632812 89.386719 C 62.844864 92.624412 65.159148 94.681694 67.951172 96.367188 C 70.297528 97.784721 72.703104 99.102553 75.583984 100.75195 C 73.727726 98.0099 72.259753 95.755053 70.699219 93.568359 C 69.506604 91.898146 69.926171 90.696329 71.333984 89.349609 C 75.828158 85.056743 82.372963 83.514674 87.318359 85.740234 C 94.503205 88.977928 96.921858 96.605936 92.878906 103.97266 C 91.801528 105.9372 90.098209 107.58924 88.539062 109.25391 C 86.775825 111.13237 84.61511 111.20162 82.396484 110.08398 C 81.055314 109.40785 79.764576 108.63319 78.451172 107.9043 L 78.451172 107.90625 C 78.252633 108.02149 78.055959 108.1348 77.857422 108.25 C 79.960811 111.55433 82.008455 114.89677 84.21875 118.12891 C 84.593611 118.67871 85.679 119.05195 86.402344 119.00195 C 91.44909 118.64791 96.053248 117.00728 99.910156 113.66406 C 103.09231 110.90674 106.82245 109.54647 110.8418 110.32812 C 116.46611 111.42494 120.61323 108.91237 124.35352 105.50391 C 132.36306 98.199666 133.79253 86.946443 128.16406 77.658203 C 127.96691 77.333323 127.78979 76.998401 127.53711 76.552734 C 131.03998 78.336801 134.85229 86.222429 134.59961 92.291016 C 132.39764 121.03179 105.49698 121.03331 86.523438 121.80664 C 86.528109 121.81254 86.534376 121.81832 86.539062 121.82422 C 84.859505 121.60619 83.143075 121.44517 81.365234 121.37891 C 77.197329 121.22063 72.922704 120.55102 68.939453 119.33203 C 49.90343 113.50502 37.535628 93.462819 40.691406 74.001953 C 44.019344 53.470647 60.64417 39.022684 81.400391 38.521484 C 84.372904 38.450671 87.408748 38.26213 90.291016 37.595703 C 105.90469 33.983157 116.17831 24.398189 121.375 9.2871094 C 121.7568 8.1736294 121.60489 7.3653148 120.38867 6.8613281 C 116.09581 5.0800482 111.84298 3.2008768 107.5293 1.4667969 C 105.95488 0.83370356 104.26008 0.4981729 102.53711 0.00390625 z M 120.61133 50.814453 C 119.35068 54.511706 118.13437 58.083663 116.95703 61.535156 C 113.35142 61.135303 109.57815 60.717763 105.66016 60.283203 C 110.05159 56.019497 114.88567 52.65128 120.61133 50.814453 z M 88.482422 66.898438 C 89.171555 66.882973 89.895114 66.942106 90.650391 67.072266 C 89.263404 68.956292 88.122845 70.715378 86.753906 72.267578 C 86.159681 72.942338 85.081542 73.532771 84.230469 73.523438 C 83.591815 73.516504 82.551607 72.564044 82.433594 71.900391 C 82.280872 71.042377 82.592452 69.781069 83.189453 69.166016 C 84.648289 67.664466 86.415022 66.944832 88.482422 66.898438 z "
       transform="matrix(0.75000002,0,0,-0.75000002,0,867.397)" /></g><metadata
     id="metadata829"><rdf:RDF><cc:Work
         rdf:about=""><dc:title>Kuggar - Icon</dc:title></cc:Work></rdf:RDF></metadata></svg>
